# xmcd CD database file
#
# Track frame offsets:
#	150
#	21182
#	38571
#	49908
#	65162
#	79976
#	100377
#	120644
#
# Disc length: 1889 seconds
#
# Revision: 0
# Processed by: cddbd v1.5PL3 Copyright (c) Steve Scherf et al.
# Submitted via: CDex 1.50
#
DISCID=6a075f08
DTITLE=バンバンバザール - Bootleg (green)
DYEAR=2000
DGENRE=Blues
TTITLE0=I'm an old cowhand
TTITLE1=明るい表通りで
TTITLE2=Lover come back to me
TTITLE3=夏だったのかなぁ
TTITLE4=夏だったのかなぁ
TTITLE5=彼女待ってただけなのさ
TTITLE6=Sweet honey bee
TTITLE7=君のこと 僕のこと
EXTD=YEAR: 2000
EXTT0=
EXTT1=
EXTT2=
EXTT3=
EXTT4=
EXTT5=
EXTT6=
EXTT7=
PLAYORDER=
